HIERARCHY
ROOT Hips
{
	OFFSET -0.001795 -0.223333 0.028219
	CHANNELS 6 Xposition Yposition Zposition Zrotation Yrotation Xrotation 
	JOINT LeftUpLeg
	{
		OFFSET 0.069520 -0.091406 -0.006815
		CHANNELS 3 Zrotation Yrotation Xrotation
		JOINT LeftLeg
		{
			OFFSET 0.034277 -0.375199 -0.004496
			CHANNELS 3 Zrotation Yrotation Xrotation
			JOINT LeftFoot
			{
				OFFSET -0.013596 -0.397961 -0.043693
				CHANNELS 3 Zrotation Yrotation Xrotation
				JOINT LeftToe
				{
					OFFSET 0.026358 -0.055791 0.119288
					CHANNELS 3 Zrotation Yrotation Xrotation
					End Site
					{
						OFFSET 0.000000 0.000000 0.000000
					}
				}
			}
		}
	}
	JOINT RightUpLeg
	{
		OFFSET -0.067670 -0.090522 -0.004320
		CHANNELS 3 Zrotation Yrotation Xrotation
		JOINT RightLeg
		{
			OFFSET -0.038290 -0.382569 -0.008850
			CHANNELS 3 Zrotation Yrotation Xrotation
			JOINT RightFoot
			{
				OFFSET 0.015774 -0.398415 -0.042312
				CHANNELS 3 Zrotation Yrotation Xrotation
				JOINT RightToe
				{
					OFFSET -0.025372 -0.048144 0.123348
					CHANNELS 3 Zrotation Yrotation Xrotation
					End Site
					{
						OFFSET 0.000000 0.000000 0.000000
					}
				}
			}
		}
	}
	JOINT Spine
	{
		OFFSET -0.002533 0.108963 -0.026696
		CHANNELS 3 Zrotation Yrotation Xrotation
		JOINT Spine1
		{
			OFFSET 0.005487 0.135180 0.001092
			CHANNELS 3 Zrotation Yrotation Xrotation
			JOINT Spine2
			{
				OFFSET 0.001457 0.052922 0.025425
				CHANNELS 3 Zrotation Yrotation Xrotation
				JOINT Neck
				{
					OFFSET -0.002778 0.213870 -0.042857
					CHANNELS 3 Zrotation Yrotation Xrotation
					JOINT Head
					{
						OFFSET 0.005152 0.064970 0.051349
						CHANNELS 3 Zrotation Yrotation Xrotation
						End Site
						{
							OFFSET 0.000000 0.000000 0.000000
						}
					}
				}
				JOINT LeftShoulder
				{
					OFFSET 0.078845 0.121749 -0.034090
					CHANNELS 3 Zrotation Yrotation Xrotation
					JOINT LeftArm
					{
						OFFSET 0.090977 0.030469 -0.008868
						CHANNELS 3 Zrotation Yrotation Xrotation
						JOINT LeftForeArm
						{
							OFFSET 0.259612 -0.012772 -0.027456
							CHANNELS 3 Zrotation Yrotation Xrotation
							JOINT LeftHand
							{
								OFFSET 0.249234 0.008986 -0.001171
								CHANNELS 3 Zrotation Yrotation Xrotation
								End Site
								{
									OFFSET 0.000000 0.000000 0.000000
								}
							}
						}
					}
				}
				JOINT RightShoulder
				{
					OFFSET -0.081759 0.118833 -0.038615
					CHANNELS 3 Zrotation Yrotation Xrotation
					JOINT RightArm
					{
						OFFSET -0.096012 0.032551 -0.009143
						CHANNELS 3 Zrotation Yrotation Xrotation
						JOINT RightForeArm
						{
							OFFSET -0.253742 -0.013329 -0.021401
							CHANNELS 3 Zrotation Yrotation Xrotation
							JOINT RightHand
							{
								OFFSET -0.255298 0.007772 -0.005559
								CHANNELS 3 Zrotation Yrotation Xrotation
								End Site
								{
									OFFSET 0.000000 0.000000 0.000000
								}
							}
						}
					}
				}
			}
		}
	}
}
MOTION
Frames: 12
Frame Time: 0.050000
-0.021534 0.956545 -0.028737 -0.172479 1.149241 -1.998118 5.875588 0.141226 5.204280 -4.665776 0.488633 -1.990278 3.820774 11.217163 13.429619 0.000000 0.000000 0.000000 -2.231395 -0.302757 4.128884 2.970025 -0.324320 0.089031 -3.246268 -11.211387 13.102763 0.000000 0.000000 0.000000 -0.419558 -0.366083 9.714738 1.592222 0.392761 -28.341237 -1.462821 0.268177 30.407803 3.657610 0.422813 -35.799971 0.000000 0.000000 0.000000 -28.570933 1.864313 -3.314426 -42.685569 -8.522530 -4.485879 -11.755704 -26.563630 4.062372 0.000000 0.000000 0.000000 21.415452 -0.985406 -1.396787 52.679571 4.463731 -6.059876 11.576498 31.032923 4.696379 0.000000 0.000000 0.000000 
-0.021389 0.956667 -0.028411 -0.278114 1.107487 -1.894771 5.922621 0.136283 5.172489 -4.642248 0.486071 -2.052507 3.807126 11.192141 13.437176 0.000000 0.000000 0.000000 -2.205746 -0.304374 4.141246 2.930051 -0.319890 0.062728 -3.263096 -11.263121 13.201512 0.000000 0.000000 0.000000 -0.391784 -0.367464 9.684046 1.504904 0.412161 -28.397129 -1.395639 0.108491 30.383151 3.606670 0.400485 -35.595354 0.000000 0.000000 0.000000 -28.536783 1.892608 -3.256555 -42.710562 -8.747494 -4.436846 -11.740213 -26.584594 4.073492 0.000000 0.000000 0.000000 21.339836 -0.886449 -1.387608 52.645188 4.566328 -5.999719 11.650568 30.873388 4.670336 0.000000 0.000000 0.000000 
-0.021317 0.956953 -0.028187 -0.373353 1.032918 -1.805749 6.114442 0.126699 5.208452 -4.729074 0.493556 -2.155629 3.727820 11.087312 13.562956 0.000000 0.000000 0.000000 -2.219194 -0.304258 4.160664 2.988872 -0.328625 -0.156041 -3.267809 -11.350739 13.604233 0.000000 0.000000 0.000000 -0.339524 -0.369598 9.618506 1.405792 0.429755 -28.419987 -1.317033 0.161385 30.416355 3.667954 0.360575 -35.457160 0.000000 0.000000 0.000000 -28.476360 1.716649 -3.136581 -42.749903 -8.923060 -4.383909 -11.724107 -26.356259 4.029024 0.000000 0.000000 0.000000 21.446583 -0.940809 -1.420293 52.648644 4.663538 -5.966343 11.611857 30.839584 4.659739 0.000000 0.000000 0.000000 
-0.021280 0.957135 -0.028064 -0.439588 0.942796 -1.636564 6.269060 0.115175 5.150445 -4.771550 0.497215 -2.246224 3.750351 11.151596 13.770397 0.000000 0.000000 0.000000 -2.295215 -0.287250 4.021988 2.983870 -0.326803 -0.117192 -3.244383 -11.358667 13.836396 0.000000 0.000000 0.000000 -0.294747 -0.371978 9.588432 1.309865 0.453205 -28.558699 -1.279661 0.216092 30.435673 3.569713 0.413184 -35.508986 0.000000 0.000000 0.000000 -28.380022 1.608368 -3.050734 -42.948047 -8.952377 -4.394643 -11.716853 -26.036070 3.976457 0.000000 0.000000 0.000000 21.437287 -0.887999 -1.386580 52.813658 4.807489 -5.923355 11.535244 30.621265 4.603802 0.000000 0.000000 0.000000 
-0.021277 0.957380 -0.027989 -0.469653 0.920319 -1.625228 6.392331 0.109995 5.197265 -4.844148 0.502485 -2.392532 3.699915 11.094924 13.887310 0.000000 0.000000 0.000000 -2.367555 -0.285881 4.054422 3.020912 -0.331662 -0.195708 -3.136252 -11.191212 13.969032 0.000000 0.000000 0.000000 -0.301575 -0.373296 9.635795 1.185477 0.478449 -28.564161 -1.234909 0.351565 30.367874 3.668698 0.393886 -35.584673 0.000000 0.000000 0.000000 -28.328290 1.488276 -3.018476 -43.043693 -8.837257 -4.417240 -11.697051 -25.526029 3.878626 0.000000 0.000000 0.000000 21.700324 -0.993061 -1.433881 52.964750 4.927941 -5.883965 11.144303 30.038797 4.408238 0.000000 0.000000 0.000000 
-0.021316 0.957478 -0.027957 -0.561346 0.990436 -1.495358 6.552632 0.092287 5.051714 -4.869440 0.502733 -2.480111 3.622933 11.000064 13.970870 0.000000 0.000000 0.000000 -2.319616 -0.281568 3.968777 3.002167 -0.330822 -0.257789 -3.174069 -11.268286 14.080756 0.000000 0.000000 0.000000 -0.307175 -0.370200 9.547797 1.016425 0.513470 -28.570713 -1.210974 0.369170 30.402564 3.670420 0.400738 -35.548241 0.000000 0.000000 0.000000 -28.375653 1.503414 -3.062587 -43.203298 -8.904797 -4.399164 -11.627694 -24.862146 3.751581 0.000000 0.000000 0.000000 21.760550 -1.025803 -1.436429 53.319522 5.030841 -5.873368 10.787341 29.459418 4.226275 0.000000 0.000000 0.000000 
-0.021357 0.957452 -0.027909 -0.638447 1.043307 -1.319869 6.674689 0.075965 4.883583 -4.881395 0.502975 -2.453753 3.577934 10.928003 13.931877 0.000000 0.000000 0.000000 -2.283978 -0.277977 3.906154 3.002052 -0.333786 -0.473949 -3.230367 -11.373834 14.158583 0.000000 0.000000 0.000000 -0.261766 -0.369255 9.409944 0.848350 0.549244 -28.616239 -1.207828 0.597760 30.494329 3.839311 0.363706 -35.581918 0.000000 0.000000 0.000000 -28.255250 1.428889 -3.100697 -43.359108 -8.918743 -4.382917 -11.560097 -24.272930 3.629871 0.000000 0.000000 0.000000 21.933156 -1.196068 -1.465851 53.486013 5.153893 -5.856929 10.493108 28.889075 4.078292 0.000000 0.000000 0.000000 
-0.021418 0.957340 -0.027799 -0.686060 1.006881 -1.191994 6.663898 0.074540 4.861665 -4.876100 0.500886 -2.651157 3.648574 11.067330 14.121269 0.000000 0.000000 0.000000 -2.294179 -0.274091 3.876512 2.986372 -0.334031 -0.647367 -3.269823 -11.463544 14.251621 0.000000 0.000000 0.000000 -0.194823 -0.372009 9.335868 0.503551 0.620761 -28.701467 -1.093724 0.820966 30.568859 3.867823 0.392336 -35.683343 0.000000 0.000000 0.000000 -27.964251 1.495529 -3.185627 -43.792150 -8.900980 -4.405275 -11.441999 -23.743450 3.515439 0.000000 0.000000 0.000000 21.888252 -1.478652 -1.566746 53.775546 5.247287 -5.852856 10.398807 28.345610 3.982780 0.000000 0.000000 0.000000 
-0.021510 0.957139 -0.027607 -0.730991 1.121263 -1.168347 6.731797 0.068679 4.890667 -4.883800 0.500017 -2.684552 3.613602 11.001430 13.989958 0.000000 0.000000 0.000000 -2.223409 -0.286038 3.964303 2.942628 -0.331872 -0.767934 -3.337867 -11.573691 14.273925 0.000000 0.000000 0.000000 -0.149350 -0.378761 9.387978 0.225648 0.679997 -28.693238 -1.092267 0.948767 30.558729 3.906556 0.417316 -35.806481 0.000000 0.000000 0.000000 -27.871450 1.535201 -3.278642 -44.099585 -8.885467 -4.410491 -11.324174 -23.183455 3.396963 0.000000 0.000000 0.000000 21.861937 -1.583185 -1.567570 54.072636 5.330420 -5.843587 10.509892 27.915644 3.951997 0.000000 0.000000 0.000000 
-0.021758 0.957009 -0.027432 -0.725575 1.100937 -1.131107 6.679895 0.073054 4.941707 -4.792396 0.491897 -2.770190 3.550946 10.918900 14.067632 0.000000 0.000000 0.000000 -2.187380 -0.287021 3.957873 2.857468 -0.324171 -0.853460 -3.310821 -11.532317 14.300102 0.000000 0.000000 0.000000 -0.168766 -0.374492 9.328548 0.096389 0.704129 -28.610639 -1.162393 1.047787 30.601815 3.805596 0.514615 -36.206821 0.000000 0.000000 0.000000 -27.946876 1.703138 -3.432342 -44.346177 -8.720985 -4.476219 -11.225315 -22.916787 3.335503 0.000000 0.000000 0.000000 21.675202 -1.614016 -1.545458 54.501287 5.438273 -5.832911 10.496781 27.696154 3.924036 0.000000 0.000000 0.000000 
-0.022240 0.957006 -0.027436 -0.747023 1.289003 -0.971078 6.703310 0.060528 4.799185 -4.745671 0.485514 -2.784915 3.528065 10.906761 14.092880 0.000000 0.000000 0.000000 -2.047685 -0.288007 3.872660 2.803800 -0.321925 -1.013991 -3.366937 -11.620322 14.389146 0.000000 0.000000 0.000000 -0.266350 -0.363111 9.223967 0.032993 0.719103 -28.659514 -1.286715 1.027802 30.716397 3.779813 0.540738 -36.206509 0.000000 0.000000 0.000000 -28.017691 1.734944 -3.500094 -44.511748 -8.821872 -4.450015 -10.844582 -22.599677 3.208638 0.000000 0.000000 0.000000 21.646789 -1.606113 -1.504946 54.678627 5.567975 -5.801684 10.692975 27.579968 3.961127 0.000000 0.000000 0.000000 
-0.022946 0.957011 -0.027604 -0.792234 1.480120 -0.834779 6.724547 0.048104 4.649415 -4.689642 0.478085 -2.816378 3.373035 10.708308 14.188542 0.000000 0.000000 0.000000 -1.941312 -0.284134 3.750981 2.776863 -0.321523 -1.100547 -3.446305 -11.760711 14.544810 0.000000 0.000000 0.000000 -0.315172 -0.354786 9.088935 -0.121477 0.748864 -28.523080 -1.389084 0.932978 30.801980 3.745676 0.574483 -36.373058 0.000000 0.000000 0.000000 -28.090012 1.927367 -3.648996 -44.592000 -8.958580 -4.408358 -10.756409 -22.555575 3.185842 0.000000 0.000000 0.000000 21.613714 -1.613794 -1.496814 54.935637 5.745810 -5.745269 10.733281 27.424325 3.949974 0.000000 0.000000 0.000000 
